<svg width="38" height="38" viewBox="0 0 38 38" fill="none" xmlns="http://www.w3.org/2000/svg">
<path d="M19.0001 11.0333C21.6326 11.0333 23.7667 8.89922 23.7667 6.26667C23.7667 3.63411 21.6326 1.5 19.0001 1.5C16.3675 1.5 14.2334 3.63411 14.2334 6.26667C14.2334 8.89922 16.3675 11.0333 19.0001 11.0333Z" stroke="#FFF0D2" stroke-opacity="0.5" stroke-width="2" stroke-miterlimit="10" stroke-linecap="square"/>
<path d="M4.68333 36.5C6.44144 36.5 7.86667 35.0747 7.86667 33.3166C7.86667 31.5585 6.44144 30.1333 4.68333 30.1333C2.92523 30.1333 1.5 31.5585 1.5 33.3166C1.5 35.0747 2.92523 36.5 4.68333 36.5Z" stroke="#FFF0D2" stroke-opacity="0.5" stroke-width="2" stroke-miterlimit="10" stroke-linecap="square"/>
<path d="M19 36.5C20.7581 36.5 22.1833 35.0747 22.1833 33.3166C22.1833 31.5585 20.7581 30.1333 19 30.1333C17.2419 30.1333 15.8167 31.5585 15.8167 33.3166C15.8167 35.0747 17.2419 36.5 19 36.5Z" stroke="#FFF0D2" stroke-opacity="0.5" stroke-width="2" stroke-miterlimit="10" stroke-linecap="square"/>
<path d="M33.3166 36.5C35.0747 36.5 36.5 35.0747 36.5 33.3166C36.5 31.5585 35.0747 30.1333 33.3166 30.1333C31.5585 30.1333 30.1333 31.5585 30.1333 33.3166C30.1333 35.0747 31.5585 36.5 33.3166 36.5Z" stroke="#FFF0D2" stroke-opacity="0.5" stroke-width="2" stroke-miterlimit="10" stroke-linecap="square"/>
<path d="M4.68335 30.1334V20.6001H33.3167V30.1334" stroke="#FFF0D2" stroke-opacity="0.5" stroke-width="2" stroke-miterlimit="10" stroke-linecap="square"/>
<path d="M19 30.1334V11.05" stroke="#FFF0D2" stroke-opacity="0.5" stroke-width="2" stroke-miterlimit="10" stroke-linecap="square"/>
</svg>
