<svg width="40" height="40" viewBox="0 0 40 40" fill="none" xmlns="http://www.w3.org/2000/svg">
<path d="M16.0168 20.0499C19.9748 20.0499 23.1834 16.8413 23.1834 12.8832C23.1834 8.92518 19.9748 5.71655 16.0168 5.71655C12.0587 5.71655 8.8501 8.92518 8.8501 12.8832C8.8501 16.8413 12.0587 20.0499 16.0168 20.0499Z" stroke="#FFF0D2" stroke-opacity="0.5" stroke-width="2" stroke-miterlimit="10"/>
<path d="M2.5 35.95L3.65 30.1833C4.21642 27.318 5.75815 24.7375 8.01286 22.8809C10.2676 21.0242 13.0959 20.0062 16.0167 20C18.9305 20.0114 21.7503 21.0324 23.996 22.8892C26.2417 24.7459 27.7745 27.3236 28.3333 30.1833L29.5 35.95" stroke="#FFF0D2" stroke-opacity="0.5" stroke-width="2" stroke-miterlimit="10"/>
<path d="M20 18.8332C21.0786 19.5574 22.3338 19.9747 23.6312 20.0407C24.9287 20.1066 26.2197 19.8185 27.3661 19.2074C28.5126 18.5963 29.4713 17.685 30.1398 16.571C30.8083 15.4571 31.1615 14.1824 31.1615 12.8832C31.1615 11.5841 30.8083 10.3094 30.1398 9.1954C29.4713 8.08145 28.5126 7.17018 27.3661 6.55903C26.2197 5.94789 24.9287 5.65987 23.6312 5.72578C22.3338 5.79169 21.0786 6.20905 20 6.93322" stroke="#FFF0D2" stroke-opacity="0.5" stroke-width="2" stroke-miterlimit="10"/>
<path d="M37.5 35.95L36.3333 30.1667C35.9854 28.4141 35.2682 26.7557 34.2295 25.3019C33.1908 23.8481 31.8544 22.6321 30.3092 21.7349C28.764 20.8378 27.0454 20.28 25.2679 20.0987C23.4903 19.9173 21.6945 20.1166 20 20.6833" stroke="#FFF0D2" stroke-opacity="0.5" stroke-width="2" stroke-miterlimit="10"/>
</svg>
