<svg width="40" height="40" viewBox="0 0 40 40" fill="none" xmlns="http://www.w3.org/2000/svg">
<path d="M16.0168 16.8333C19.9748 16.8333 23.1834 13.6247 23.1834 9.66667C23.1834 5.70863 19.9748 2.5 16.0168 2.5C12.0587 2.5 8.8501 5.70863 8.8501 9.66667C8.8501 13.6247 12.0587 16.8333 16.0168 16.8333Z" stroke="#FFF0D2" stroke-opacity="0.5" stroke-width="2" stroke-miterlimit="10"/>
<path d="M2.5 32.7333L3.66667 26.95C4.23684 24.0938 5.77888 21.5234 8.03047 19.6759C10.2821 17.8285 13.1041 16.8181 16.0167 16.8167C18.7923 16.8111 21.4903 17.732 23.6833 19.4333" stroke="#FFF0D2" stroke-opacity="0.5" stroke-width="2" stroke-miterlimit="10"/>
<path d="M27.9499 37.4999C33.2242 37.4999 37.4999 33.2242 37.4999 27.9499C37.4999 22.6756 33.2242 18.3999 27.9499 18.3999C22.6756 18.3999 18.3999 22.6756 18.3999 27.9499C18.3999 33.2242 22.6756 37.4999 27.9499 37.4999Z" stroke="#FFF0D2" stroke-opacity="0.5" stroke-width="2" stroke-miterlimit="10"/>
<path d="M32.7334 24.7666L27.1667 30.3333L23.9834 27.1666" stroke="#FFF0D2" stroke-opacity="0.5" stroke-width="2" stroke-miterlimit="10"/>
</svg>
