<?xml version="1.0" standalone="no"?>
<!DOCTYPE svg PUBLIC "-//W3C//DTD SVG 20010904//EN"
 "http://www.w3.org/TR/2001/REC-SVG-20010904/DTD/svg10.dtd">
<svg version="1.0" xmlns="http://www.w3.org/2000/svg"
 width="110.000000pt" height="110.000000pt" viewBox="0 0 110.000000 110.000000"
 preserveAspectRatio="xMidYMid meet">
<metadata>
Created by potrace 1.14, written by Peter Selinger 2001-2017
</metadata>
<g transform="translate(0.000000,110.000000) scale(0.100000,-0.100000)"
fill="#000000" stroke="none">
<path d="M515 1001 c-10 -18 -2 -366 9 -373 7 -5 6 -8 -3 -8 -11 0 -11 -3 0
-17 8 -9 9 -14 3 -10 -17 10 -12 -36 6 -50 22 -18 35 -16 19 4 -8 9 -9 14 -3
10 9 -5 12 53 13 223 2 223 1 230 -18 230 -11 0 -22 -4 -26 -9z"/>
<path d="M421 716 c2 -140 6 -206 13 -206 7 0 7 -3 1 -8 -19 -14 -14 -30 10
-29 14 0 25 3 25 8 0 5 -4 9 -10 9 -5 0 -10 5 -10 11 0 5 4 8 8 5 4 -2 8 88 7
202 l0 207 -23 3 -23 4 2 -206z"/>
<path d="M608 913 c-5 -23 -2 -370 3 -367 4 2 10 -3 13 -11 3 -9 -1 -18 -9
-21 -11 -5 -12 -11 -4 -25 7 -13 6 -19 -1 -19 -6 0 -8 -5 -5 -11 4 -6 14 -8
23 -4 12 5 12 1 -3 -15 -16 -18 -17 -23 -5 -30 8 -6 20 -9 25 -9 6 0 4 3 -3 6
-6 2 -9 10 -5 16 14 22 14 49 0 44 -15 -6 -21 29 -6 38 5 3 6 -1 3 -9 -3 -9
-1 -16 4 -16 7 0 11 75 12 220 1 215 0 220 -20 220 -11 0 -21 -3 -22 -7z"/>
<path d="M337 823 c-10 -9 -9 -325 1 -319 4 2 14 0 22 -5 12 -8 11 -9 -5 -7
-18 3 -20 -3 -20 -48 -1 -37 4 -55 15 -62 12 -7 17 -7 17 4 0 7 -4 11 -8 9 -4
-3 -9 2 -12 10 -4 9 -1 12 8 8 11 -4 14 2 11 26 -2 17 0 31 4 31 11 0 7 44 -5
52 -7 5 -6 8 0 8 9 0 14 230 7 288 -2 13 -24 16 -35 5z m18 -383 c2 -12 1 -20
-2 -16 -4 4 -8 16 -10 28 -4 28 6 18 12 -12z"/>
<path d="M698 818 c-5 -13 -1 -287 5 -368 2 -25 6 -51 10 -57 4 -6 1 -13 -5
-16 -7 -3 -3 -4 9 -4 15 1 19 5 13 11 -12 12 -13 29 -2 22 10 -6 10 3 12 219
3 212 3 205 -19 205 -10 0 -21 -6 -23 -12z m30 -343 c-3 -3 -9 2 -12 12 -6 14
-5 15 5 6 7 -7 10 -15 7 -18z m-5 -50 c-7 -21 -12 -19 -10 4 0 11 5 18 9 15 4
-3 5 -11 1 -19z"/>
<path d="M245 730 c-10 -16 -3 -354 8 -367 15 -20 24 -15 23 10 -1 12 0 26 3
32 9 18 8 310 -2 323 -11 15 -24 16 -32 2z m25 -310 c0 -5 -4 -10 -10 -10 -5
0 -10 5 -10 10 0 6 5 10 10 10 6 0 10 -4 10 -10z m0 -41 c0 -5 -4 -9 -8 -9 -5
0 -9 7 -9 15 0 8 4 12 9 9 4 -3 8 -9 8 -15z"/>
<path d="M790 595 c0 -99 4 -145 13 -154 10 -11 10 -13 0 -7 -8 5 -13 1 -13
-9 0 -11 5 -15 15 -12 8 4 17 1 21 -5 5 -7 2 -8 -6 -3 -9 5 -11 4 -6 -3 5 -8
2 -10 -8 -6 -9 3 -16 1 -16 -6 0 -6 5 -8 10 -5 6 3 10 2 10 -4 0 -5 -3 -11 -7
-14 -5 -2 -2 -2 6 0 8 2 11 -2 7 -12 -3 -10 -2 -13 5 -10 5 4 7 15 4 25 -3 10
-1 21 4 24 5 4 6 18 2 34 -5 15 -5 36 -2 47 6 16 7 204 2 252 0 6 -10 11 -21
10 -19 -1 -20 -8 -20 -142z"/>
<path d="M149 602 c-2 -159 2 -252 13 -252 4 0 8 -5 8 -11 0 -5 -5 -7 -12 -3
-7 4 -8 3 -4 -5 4 -6 0 -14 -8 -17 -9 -3 -16 -15 -16 -25 0 -10 -7 -19 -15
-19 -18 0 -20 18 -14 194 1 58 -2 80 -12 87 -27 17 -36 -17 -33 -113 3 -75 7
-95 21 -106 17 -13 17 -13 -1 -10 -18 3 -20 -4 -21 -65 -1 -64 0 -67 22 -67
18 0 23 5 23 25 0 16 6 25 15 25 9 0 15 -9 15 -25 0 -20 5 -25 24 -25 21 0 23
4 21 40 -1 22 2 40 7 40 5 0 6 6 1 13 -12 19 -14 49 -3 42 16 -10 7 18 -10 33
-13 12 -13 13 3 8 20 -6 23 14 5 33 -10 11 -10 13 0 7 14 -8 13 -10 16 127 1
60 -2 101 -9 105 -27 17 -35 9 -36 -36z"/>
<path d="M898 642 c-16 -3 -18 -17 -18 -123 0 -94 3 -119 13 -113 9 6 9 4 1
-7 -20 -27 -5 -86 19 -73 9 5 9 4 1 -5 -10 -11 -9 -119 1 -130 6 -6 84 -5 91
1 15 15 10 76 -9 113 -14 28 -15 36 -5 28 19 -17 31 -4 15 15 -6 9 -7 13 -1
10 13 -9 15 184 1 194 -6 3 -16 4 -24 1 -11 -4 -14 -32 -12 -130 1 -80 -3
-129 -10 -136 -8 -8 -11 -6 -11 9 0 10 -8 24 -19 31 -13 8 -17 21 -15 50 1 21
3 38 4 38 5 0 5 216 1 223 -4 4 -14 6 -23 4z m8 -298 c1 -9 0 -13 -4 -10 -3 4
-7 14 -8 22 -1 9 0 13 4 10 3 -4 7 -14 8 -22z m66 -96 c6 -17 -1 -38 -13 -38
-5 0 -9 11 -9 25 0 26 14 34 22 13z"/>
<path d="M515 530 c-3 -5 -2 -10 3 -10 13 0 10 -32 -3 -43 -6 -5 -5 -7 4 -5 8
2 15 16 17 31 3 28 -10 45 -21 27z"/>
<path d="M549 518 c-1 -2 -3 -14 -4 -28 -1 -14 -6 -34 -10 -45 -6 -15 -5 -17
4 -9 11 10 25 84 16 84 -3 0 -6 -1 -6 -2z"/>
<path d="M431 456 c-9 -10 -9 -16 -1 -21 8 -5 7 -12 -2 -23 -9 -11 -5 -10 14
3 31 23 33 28 14 44 -10 8 -16 8 -25 -3z m23 -17 c-3 -5 -10 -7 -15 -3 -5 3
-7 10 -3 15 3 5 10 7 15 3 5 -3 7 -10 3 -15z"/>
<path d="M430 385 c0 -7 30 -13 34 -7 3 4 -4 9 -15 9 -10 1 -19 0 -19 -2z"/>
<path d="M335 360 c3 -5 8 -10 11 -10 2 0 4 5 4 10 0 6 -5 10 -11 10 -5 0 -7
-4 -4 -10z"/>
<path d="M649 295 c-3 -70 0 -98 12 -105 19 -12 29 -3 29 26 0 19 5 25 18 22
11 -3 16 -12 14 -27 -2 -18 2 -22 20 -19 21 3 23 9 25 61 1 43 -2 57 -13 57
-8 0 -17 0 -21 0 -5 0 -8 -8 -8 -17 0 -10 -8 -19 -18 -21 -12 -3 -17 3 -17 20
0 31 -40 34 -41 3z"/>
<path d="M219 286 c-51 -25 -27 -110 29 -100 37 7 52 22 52 54 0 43 -41 66
-81 46z m41 -46 c0 -10 -5 -22 -10 -25 -13 -8 -24 20 -16 41 8 20 26 9 26 -16z"/>
<path d="M310 251 c0 -42 23 -76 43 -64 6 4 24 6 39 5 27 -2 28 -1 28 48 0 43
-3 50 -20 50 -16 0 -20 -7 -20 -35 0 -25 -4 -35 -16 -35 -9 0 -14 8 -13 18 4
39 -2 52 -21 52 -17 0 -20 -7 -20 -39z"/>
<path d="M440 261 c0 -20 5 -31 14 -31 8 0 17 -4 21 -9 3 -6 -3 -8 -14 -6 -11
2 -22 -3 -25 -11 -3 -8 1 -15 9 -15 8 -1 21 -2 28 -3 22 -4 47 14 47 33 0 10
-10 25 -22 34 -14 9 -17 15 -8 14 8 -1 17 3 20 8 3 6 -12 11 -32 13 -36 3 -38
2 -38 -27z"/>
<path d="M541 276 c-19 -23 -9 -69 17 -82 29 -14 72 -6 72 13 0 8 -6 13 -12
10 -7 -2 -22 -1 -33 4 -16 6 -14 8 13 8 27 1 32 5 32 25 0 36 -65 52 -89 22z
m54 -16 c3 -5 -1 -10 -10 -10 -9 0 -13 5 -10 10 3 6 8 10 10 10 2 0 7 -4 10
-10z"/>
<path d="M789 288 c0 -2 -2 -20 -3 -41 -3 -40 17 -73 36 -61 6 4 23 7 39 6 26
-1 27 2 31 49 3 45 1 49 -19 49 -20 0 -23 -5 -23 -35 0 -22 -5 -35 -13 -35 -9
0 -13 12 -12 35 2 28 -2 35 -16 35 -11 0 -19 -1 -20 -2z"/>
</g>
</svg>
