<svg width="32" height="32" viewBox="0 0 32 32" fill="none" xmlns="http://www.w3.org/2000/svg">
<path d="M27.8665 2.6665H4.13317C3.74419 2.6665 3.37113 2.82103 3.09608 3.09608C2.82103 3.37113 2.6665 3.74419 2.6665 4.13317V27.8665C2.6665 28.2555 2.82103 28.6285 3.09608 28.9036C3.37113 29.1786 3.74419 29.3332 4.13317 29.3332H16.9065V18.9998H13.4398V14.9998H16.9065V11.9998C16.8347 11.2955 16.9178 10.584 17.1501 9.91522C17.3824 9.24643 17.7582 8.63656 18.2511 8.12839C18.7441 7.62021 19.3422 7.22603 20.0036 6.97349C20.665 6.72095 21.3737 6.61617 22.0798 6.6665C23.1176 6.66012 24.1549 6.71354 25.1865 6.8265V10.4265H23.0665C21.3865 10.4265 21.0665 11.2265 21.0665 12.3865V14.9598H25.0665L24.5465 18.9598H21.0665V29.3332H27.8665C28.0591 29.3332 28.2498 29.2952 28.4278 29.2215C28.6057 29.1478 28.7674 29.0398 28.9036 28.9036C29.0398 28.7674 29.1478 28.6057 29.2215 28.4278C29.2952 28.2498 29.3332 28.0591 29.3332 27.8665V4.13317C29.3332 3.94056 29.2952 3.74985 29.2215 3.5719C29.1478 3.39396 29.0398 3.23227 28.9036 3.09608C28.7674 2.95989 28.6057 2.85185 28.4278 2.77815C28.2498 2.70444 28.0591 2.6665 27.8665 2.6665Z" fill="#FFF0D2"/>
</svg>
