<svg width="32" height="32" viewBox="0 0 32 32" fill="none" xmlns="http://www.w3.org/2000/svg">
<path d="M22.6667 4H9.33333C7.91885 4 6.56229 4.5619 5.5621 5.5621C4.5619 6.56229 4 7.91885 4 9.33333V22.6667C4 24.0812 4.5619 25.4377 5.5621 26.4379C6.56229 27.4381 7.91885 28 9.33333 28H22.6667C24.0812 28 25.4377 27.4381 26.4379 26.4379C27.4381 25.4377 28 24.0812 28 22.6667V9.33333C28 7.91885 27.4381 6.56229 26.4379 5.5621C25.4377 4.5619 24.0812 4 22.6667 4Z" stroke="#FFF0D2" stroke-width="2" stroke-linejoin="round"/>
<path d="M15.9998 21.3332C17.4143 21.3332 18.7709 20.7713 19.7711 19.7711C20.7713 18.7709 21.3332 17.4143 21.3332 15.9998C21.3332 14.5853 20.7713 13.2288 19.7711 12.2286C18.7709 11.2284 17.4143 10.6665 15.9998 10.6665C14.5853 10.6665 13.2288 11.2284 12.2286 12.2286C11.2284 13.2288 10.6665 14.5853 10.6665 15.9998C10.6665 17.4143 11.2284 18.7709 12.2286 19.7711C13.2288 20.7713 14.5853 21.3332 15.9998 21.3332Z" stroke="#FFF0D2" stroke-width="2" stroke-linejoin="round"/>
<path d="M23.3333 10.0002C23.687 10.0002 24.0261 9.85969 24.2761 9.60964C24.5262 9.35959 24.6667 9.02045 24.6667 8.66683C24.6667 8.31321 24.5262 7.97407 24.2761 7.72402C24.0261 7.47397 23.687 7.3335 23.3333 7.3335C22.9797 7.3335 22.6406 7.47397 22.3905 7.72402C22.1405 7.97407 22 8.31321 22 8.66683C22 9.02045 22.1405 9.35959 22.3905 9.60964C22.6406 9.85969 22.9797 10.0002 23.3333 10.0002Z" fill="#FFF0D2"/>
</svg>
