<svg width="32" height="32" viewBox="0 0 32 32" fill="none" xmlns="http://www.w3.org/2000/svg">
<path d="M6.92422 9.09066V9.09062C6.92422 8.80982 6.97953 8.53177 7.08699 8.27234C7.19444 8.01291 7.35195 7.77719 7.55051 7.57863C7.74906 7.38007 7.98479 7.22257 8.24422 7.11511C8.50364 7.00765 8.7817 6.95234 9.0625 6.95234C9.3433 6.95234 9.62136 7.00765 9.88078 7.11511C10.1402 7.22257 10.3759 7.38007 10.5745 7.57863C10.7731 7.77719 10.9306 8.01291 11.038 8.27234C11.1455 8.53177 11.2008 8.80982 11.2008 9.09062C11.2008 10.2716 10.2404 11.2289 9.0625 11.2289C7.87833 11.2289 6.92111 10.2716 6.92422 9.09066ZM16.85 14.5148V14.5281L16.8604 14.5086C17.3553 13.5747 18.5608 12.5867 20.3594 12.5867C22.233 12.5867 23.3404 13.2035 23.9803 14.2187C24.621 15.2353 24.7945 16.6534 24.7945 18.2594V24.7914H21.1117V19C21.1117 18.3083 21.1048 17.5153 20.8593 16.8953C20.7364 16.5849 20.5536 16.3173 20.2814 16.1274C20.0092 15.9374 19.6487 15.8258 19.1719 15.8258C18.6883 15.8258 18.3062 15.9202 18.0051 16.0869C17.704 16.2536 17.4846 16.4923 17.3261 16.7795C17.0093 17.3534 16.9352 18.1217 16.9352 18.9V24.7914H13.2523V12.8836H16.7883V14.5031V14.5148H16.8H16.85ZM5.50938 3.51172H26.4906C27.5935 3.51172 28.4883 4.40647 28.4883 5.50938V26.4906C28.4883 27.5935 27.5935 28.4883 26.4906 28.4883H5.50938C4.40647 28.4883 3.51172 27.5935 3.51172 26.4906V5.50938C3.51172 4.40647 4.40647 3.51172 5.50938 3.51172ZM5.48828 26.4906C5.49084 26.4979 5.49805 26.5022 5.49875 26.5023L5.49965 26.5024L5.50095 26.5024L5.50496 26.5025L5.52041 26.5026L5.58195 26.5029L5.82796 26.5035C6.04662 26.5039 6.3746 26.5043 6.8119 26.5047C7.68652 26.5055 8.99843 26.5063 10.7477 26.507C14.2461 26.5086 19.4937 26.5102 26.4906 26.5117C26.4979 26.5092 26.5022 26.5019 26.5023 26.5013L26.5024 26.5003L26.5024 26.4991L26.5025 26.495L26.5026 26.4796L26.5029 26.418L26.5035 26.172C26.5039 25.9534 26.5043 25.6254 26.5047 25.1881C26.5055 24.3135 26.5063 23.0016 26.507 21.2523C26.5086 17.7539 26.5102 12.5063 26.5117 5.50938C26.5092 5.50206 26.5019 5.49781 26.5013 5.49771L26.5003 5.49764L26.4991 5.49759L26.495 5.49751L26.4796 5.49736L26.418 5.49707L26.172 5.49648C25.9534 5.49609 25.6254 5.4957 25.1881 5.49531C24.3135 5.49453 23.0016 5.49375 21.2523 5.49297C17.7539 5.49141 12.5063 5.48984 5.50938 5.48828C5.50206 5.49084 5.49781 5.49805 5.49771 5.49875L5.49764 5.49965L5.49759 5.50095L5.49751 5.50496L5.49736 5.52041L5.49707 5.58195L5.49648 5.82796C5.49609 6.04662 5.4957 6.3746 5.49531 6.8119C5.49453 7.68652 5.49375 8.99843 5.49297 10.7477C5.49141 14.2461 5.48984 19.4937 5.48828 26.4906ZM7.21797 12.8836H10.9039V24.7914H7.21797V12.8836Z" fill="#FFF0D2" stroke="#FFF0D2" stroke-width="0.0234375"/>
</svg>
