<svg width="32" height="32" viewBox="0 0 32 32" fill="none" xmlns="http://www.w3.org/2000/svg">
<mask id="path-1-inside-1_911_5827" fill="white">
<path d="M20.1093 21.5937V25.2563C20.1093 26.0317 19.8462 26.4193 19.3198 26.4193C19.0094 26.4193 18.7058 26.292 18.4089 26.0374V20.8126C18.7058 20.558 19.0094 20.4307 19.3198 20.4307C19.8462 20.4307 20.1093 20.8184 20.1093 21.5937ZM26.9514 21.6111V22.4096H25.1296V21.6111C25.1296 20.8242 25.4332 20.4307 26.0405 20.4307C26.6478 20.4307 26.9514 20.8242 26.9514 21.6111ZM7.39676 17.827H9.56275V16.1953H3.24696V17.827H5.37247V27.7038H7.39676V17.827ZM13.2267 27.7038H15.0283V19.1288H13.2267V25.6903C12.8219 26.1763 12.4372 26.4193 12.0729 26.4193C11.83 26.4193 11.6883 26.2978 11.6478 26.0548C11.6343 26.0201 11.6275 25.8176 11.6275 25.4473V19.1288H9.82591V25.9159C9.82591 26.483 9.87989 26.9054 9.98785 27.1831C10.1498 27.6113 10.5412 27.8254 11.1619 27.8254C11.8097 27.8254 12.498 27.4724 13.2267 26.7665V27.7038ZM21.9109 25.1348V21.7152C21.9109 20.8705 21.8502 20.2976 21.7287 19.9968C21.4993 19.3487 21.0202 19.0247 20.2915 19.0247C19.6167 19.0247 18.9892 19.3371 18.4089 19.962V16.1953H16.6073V27.7038H18.4089V26.8706C19.0162 27.5071 19.6437 27.8254 20.2915 27.8254C21.0202 27.8254 21.4993 27.5071 21.7287 26.8706C21.8502 26.5582 21.9109 25.9796 21.9109 25.1348ZM28.753 24.9612V24.7356H26.9109C26.9109 25.3258 26.8974 25.6787 26.8704 25.7944C26.776 26.211 26.5061 26.4193 26.0607 26.4193C25.4399 26.4193 25.1296 26.0201 25.1296 25.2216V23.7114H28.753V21.9235C28.753 21.0093 28.5709 20.3381 28.2065 19.91C27.6802 19.3198 26.9649 19.0247 26.0607 19.0247C25.143 19.0247 24.4211 19.3198 23.8947 19.91C23.5169 20.3381 23.3279 21.0093 23.3279 21.9235V24.9265C23.3279 25.8407 23.5236 26.5119 23.915 26.9401C24.4413 27.5303 25.17 27.8254 26.1012 27.8254C27.0729 27.8254 27.8016 27.5187 28.2874 26.9054C28.5304 26.5929 28.6721 26.2805 28.7125 25.968C28.7395 25.8639 28.753 25.5283 28.753 24.9612ZM16.4453 9.11311V5.46786C16.4453 4.66938 16.1552 4.27014 15.5749 4.27014C14.9946 4.27014 14.7045 4.66938 14.7045 5.46786V9.11311C14.7045 9.92316 14.9946 10.3282 15.5749 10.3282C16.1552 10.3282 16.4453 9.92316 16.4453 9.11311ZM31 22.1492C31 24.8571 30.8246 26.8822 30.4737 28.2246C30.2847 28.9074 29.8934 29.4802 29.2996 29.9431C28.7058 30.406 28.0175 30.6721 27.2348 30.7415C24.7517 30.9846 21.0067 31.1061 16 31.1061C10.9933 31.1061 7.24831 30.9846 4.76518 30.7415C3.98246 30.6721 3.29082 30.406 2.69028 29.9431C2.08974 29.4802 1.70175 28.9074 1.52632 28.2246C1.17544 26.9285 1 24.9034 1 22.1492C1 19.4413 1.17544 17.4162 1.52632 16.0738C1.71525 15.391 2.10661 14.8182 2.7004 14.3553C3.2942 13.8924 3.9892 13.6205 4.78542 13.5395C7.25506 13.308 10.9933 13.1923 16 13.1923C21.0067 13.1923 24.7517 13.308 27.2348 13.5395C28.0175 13.6205 28.7092 13.8924 29.3097 14.3553C29.9103 14.8182 30.2982 15.391 30.4737 16.0738C30.8246 17.3699 31 19.395 31 22.1492ZM10.7976 0H12.8623L10.413 6.92596V11.6301H8.38866V6.92596C8.19973 6.06962 7.78812 4.84297 7.15385 3.246C6.65452 2.05407 6.21592 0.972065 5.83806 0H7.98381L9.42105 4.56523L10.7976 0ZM18.2874 5.78031V8.81802C18.2874 9.75536 18.0985 10.4381 17.7206 10.8663C17.2078 11.4565 16.4926 11.7516 15.5749 11.7516C14.6707 11.7516 13.9622 11.4565 13.4494 10.8663C13.0715 10.4266 12.8826 9.74379 12.8826 8.81802V5.78031C12.8826 4.85454 13.0715 4.17756 13.4494 3.74939C13.9622 3.15921 14.6707 2.86412 15.5749 2.86412C16.4926 2.86412 17.2078 3.15921 17.7206 3.74939C18.0985 4.17756 18.2874 4.85454 18.2874 5.78031ZM25.0688 2.96827V11.6301H23.2267V10.6754C22.5115 11.3928 21.8165 11.7516 21.1417 11.7516C20.5209 11.7516 20.1228 11.5375 19.9474 11.1093C19.8394 10.8316 19.7854 10.3976 19.7854 9.80744V2.96827H21.6275V9.33877C21.6275 9.72065 21.6343 9.92316 21.6478 9.94631C21.6883 10.2009 21.83 10.3282 22.0729 10.3282C22.4372 10.3282 22.8219 10.0794 23.2267 9.58178V2.96827H25.0688Z"/>
</mask>
<path d="M20.1093 21.5937V25.2563C20.1093 26.0317 19.8462 26.4193 19.3198 26.4193C19.0094 26.4193 18.7058 26.292 18.4089 26.0374V20.8126C18.7058 20.558 19.0094 20.4307 19.3198 20.4307C19.8462 20.4307 20.1093 20.8184 20.1093 21.5937ZM26.9514 21.6111V22.4096H25.1296V21.6111C25.1296 20.8242 25.4332 20.4307 26.0405 20.4307C26.6478 20.4307 26.9514 20.8242 26.9514 21.6111ZM7.39676 17.827H9.56275V16.1953H3.24696V17.827H5.37247V27.7038H7.39676V17.827ZM13.2267 27.7038H15.0283V19.1288H13.2267V25.6903C12.8219 26.1763 12.4372 26.4193 12.0729 26.4193C11.83 26.4193 11.6883 26.2978 11.6478 26.0548C11.6343 26.0201 11.6275 25.8176 11.6275 25.4473V19.1288H9.82591V25.9159C9.82591 26.483 9.87989 26.9054 9.98785 27.1831C10.1498 27.6113 10.5412 27.8254 11.1619 27.8254C11.8097 27.8254 12.498 27.4724 13.2267 26.7665V27.7038ZM21.9109 25.1348V21.7152C21.9109 20.8705 21.8502 20.2976 21.7287 19.9968C21.4993 19.3487 21.0202 19.0247 20.2915 19.0247C19.6167 19.0247 18.9892 19.3371 18.4089 19.962V16.1953H16.6073V27.7038H18.4089V26.8706C19.0162 27.5071 19.6437 27.8254 20.2915 27.8254C21.0202 27.8254 21.4993 27.5071 21.7287 26.8706C21.8502 26.5582 21.9109 25.9796 21.9109 25.1348ZM28.753 24.9612V24.7356H26.9109C26.9109 25.3258 26.8974 25.6787 26.8704 25.7944C26.776 26.211 26.5061 26.4193 26.0607 26.4193C25.4399 26.4193 25.1296 26.0201 25.1296 25.2216V23.7114H28.753V21.9235C28.753 21.0093 28.5709 20.3381 28.2065 19.91C27.6802 19.3198 26.9649 19.0247 26.0607 19.0247C25.143 19.0247 24.4211 19.3198 23.8947 19.91C23.5169 20.3381 23.3279 21.0093 23.3279 21.9235V24.9265C23.3279 25.8407 23.5236 26.5119 23.915 26.9401C24.4413 27.5303 25.17 27.8254 26.1012 27.8254C27.0729 27.8254 27.8016 27.5187 28.2874 26.9054C28.5304 26.5929 28.6721 26.2805 28.7125 25.968C28.7395 25.8639 28.753 25.5283 28.753 24.9612ZM16.4453 9.11311V5.46786C16.4453 4.66938 16.1552 4.27014 15.5749 4.27014C14.9946 4.27014 14.7045 4.66938 14.7045 5.46786V9.11311C14.7045 9.92316 14.9946 10.3282 15.5749 10.3282C16.1552 10.3282 16.4453 9.92316 16.4453 9.11311ZM31 22.1492C31 24.8571 30.8246 26.8822 30.4737 28.2246C30.2847 28.9074 29.8934 29.4802 29.2996 29.9431C28.7058 30.406 28.0175 30.6721 27.2348 30.7415C24.7517 30.9846 21.0067 31.1061 16 31.1061C10.9933 31.1061 7.24831 30.9846 4.76518 30.7415C3.98246 30.6721 3.29082 30.406 2.69028 29.9431C2.08974 29.4802 1.70175 28.9074 1.52632 28.2246C1.17544 26.9285 1 24.9034 1 22.1492C1 19.4413 1.17544 17.4162 1.52632 16.0738C1.71525 15.391 2.10661 14.8182 2.7004 14.3553C3.2942 13.8924 3.9892 13.6205 4.78542 13.5395C7.25506 13.308 10.9933 13.1923 16 13.1923C21.0067 13.1923 24.7517 13.308 27.2348 13.5395C28.0175 13.6205 28.7092 13.8924 29.3097 14.3553C29.9103 14.8182 30.2982 15.391 30.4737 16.0738C30.8246 17.3699 31 19.395 31 22.1492ZM10.7976 0H12.8623L10.413 6.92596V11.6301H8.38866V6.92596C8.19973 6.06962 7.78812 4.84297 7.15385 3.246C6.65452 2.05407 6.21592 0.972065 5.83806 0H7.98381L9.42105 4.56523L10.7976 0ZM18.2874 5.78031V8.81802C18.2874 9.75536 18.0985 10.4381 17.7206 10.8663C17.2078 11.4565 16.4926 11.7516 15.5749 11.7516C14.6707 11.7516 13.9622 11.4565 13.4494 10.8663C13.0715 10.4266 12.8826 9.74379 12.8826 8.81802V5.78031C12.8826 4.85454 13.0715 4.17756 13.4494 3.74939C13.9622 3.15921 14.6707 2.86412 15.5749 2.86412C16.4926 2.86412 17.2078 3.15921 17.7206 3.74939C18.0985 4.17756 18.2874 4.85454 18.2874 5.78031ZM25.0688 2.96827V11.6301H23.2267V10.6754C22.5115 11.3928 21.8165 11.7516 21.1417 11.7516C20.5209 11.7516 20.1228 11.5375 19.9474 11.1093C19.8394 10.8316 19.7854 10.3976 19.7854 9.80744V2.96827H21.6275V9.33877C21.6275 9.72065 21.6343 9.92316 21.6478 9.94631C21.6883 10.2009 21.83 10.3282 22.0729 10.3282C22.4372 10.3282 22.8219 10.0794 23.2267 9.58178V2.96827H25.0688Z" fill="#FFF0D2" stroke="#FFF0D2" stroke-width="0.0267857" mask="url(#path-1-inside-1_911_5827)"/>
</svg>
