<svg width="14" height="14" viewBox="0 0 14 14" fill="none" xmlns="http://www.w3.org/2000/svg">
<g clip-path="url(#clip0_305_9438)">
<path d="M12.0108 8.66833V5.88583C12.0093 4.55735 11.4809 3.28372 10.5415 2.34434C9.60211 1.40497 8.32848 0.876544 7 0.875C5.67152 0.876544 4.39789 1.40497 3.45851 2.34434C2.51913 3.28372 1.99071 4.55735 1.98917 5.88583V8.66833L0.875 9.7825V10.8967H13.125V9.7825L12.0108 8.66833Z" stroke="black" stroke-width="2" stroke-miterlimit="10"/>
<path d="M8.56638 10.8984C8.63816 11.0843 8.67189 11.2826 8.66554 11.4818C8.66554 11.9242 8.48977 12.3486 8.1769 12.6615C7.86403 12.9743 7.43968 13.1501 6.99721 13.1501C6.55474 13.1501 6.1304 12.9743 5.81752 12.6615C5.50465 12.3486 5.32888 11.9242 5.32888 11.4818C5.32254 11.2826 5.35626 11.0843 5.42805 10.8984" stroke="black" stroke-width="2" stroke-miterlimit="10"/>
</g>
<defs>
<clipPath id="clip0_305_9438">
<rect width="14" height="14" fill="white"/>
</clipPath>
</defs>
</svg>
