<svg width="25" height="24" viewBox="0 0 25 24" fill="none" xmlns="http://www.w3.org/2000/svg">
    <path d="M13.7688 3.66881C14.0689 3.36885 14.4758 3.20035 14.9 3.20035C15.3243 3.20035 15.7312 3.36885 16.0312 3.66881L23.2312 10.8688C23.5312 11.1689 23.6997 11.5757 23.6997 12C23.6997 12.4243 23.5312 12.8312 23.2312 13.1312L16.0312 20.3312C15.7295 20.6227 15.3253 20.7839 14.9058 20.7803C14.4863 20.7766 14.085 20.6084 13.7883 20.3117C13.4917 20.0151 13.3234 19.6138 13.3198 19.1942C13.3161 18.7747 13.4774 18.3706 13.7688 18.0688L18.1 13.6H2.90005C2.4757 13.6 2.06874 13.4314 1.76868 13.1314C1.46862 12.8313 1.30005 12.4244 1.30005 12C1.30005 11.5757 1.46862 11.1687 1.76868 10.8686C2.06874 10.5686 2.4757 10.4 2.90005 10.4H18.1L13.7688 5.93121C13.4689 5.63116 13.3004 5.22427 13.3004 4.80001C13.3004 4.37574 13.4689 3.96885 13.7688 3.66881Z" fill="#FFF0D2"/>
</svg>
