<svg width="24" height="24" viewBox="0 0 24 24" fill="none" xmlns="http://www.w3.org/2000/svg">
<path d="M13.2696 3.6689C13.5696 3.36894 13.9765 3.20044 14.4008 3.20044C14.825 3.20044 15.2319 3.36894 15.532 3.6689L22.732 10.8689C23.0319 11.1689 23.2004 11.5758 23.2004 12.0001C23.2004 12.4244 23.0319 12.8313 22.732 13.1313L15.532 20.3313C15.2302 20.6228 14.8261 20.784 14.4065 20.7804C13.987 20.7767 13.5857 20.6085 13.2891 20.3118C12.9924 20.0152 12.8241 19.6139 12.8205 19.1943C12.8169 18.7748 12.9781 18.3707 13.2696 18.0689L17.6008 13.6001H2.40078C1.97643 13.6001 1.56947 13.4315 1.26941 13.1315C0.969352 12.8314 0.800781 12.4244 0.800781 12.0001C0.800781 11.5758 0.969352 11.1688 1.26941 10.8687C1.56947 10.5687 1.97643 10.4001 2.40078 10.4001H17.6008L13.2696 5.9313C12.9696 5.63125 12.8011 5.22436 12.8011 4.8001C12.8011 4.37584 12.9696 3.96894 13.2696 3.6689Z" fill="#1E1510"/>
</svg>
