<svg width="20" height="21" viewBox="0 0 20 21" fill="none" xmlns="http://www.w3.org/2000/svg">
<g clip-path="url(#clip0_616_13114)">
<path d="M10 19.25C14.8325 19.25 18.75 15.3325 18.75 10.5C18.75 5.66751 14.8325 1.75 10 1.75C5.16751 1.75 1.25 5.66751 1.25 10.5C1.25 15.3325 5.16751 19.25 10 19.25Z" stroke="black" stroke-width="2" stroke-miterlimit="10"/>
<path d="M9.9987 11.2913C10.4359 11.2913 10.7904 10.9369 10.7904 10.4997C10.7904 10.0624 10.4359 9.70801 9.9987 9.70801C9.56147 9.70801 9.20703 10.0624 9.20703 10.4997C9.20703 10.9369 9.56147 11.2913 9.9987 11.2913Z" stroke="black" stroke-width="2" stroke-miterlimit="10"/>
<path d="M10 4.1333V10.5L13.975 14.475" stroke="black" stroke-width="2" stroke-miterlimit="10"/>
</g>
<defs>
<clipPath id="clip0_616_13114">
<rect width="20" height="20" fill="white" transform="translate(0 0.5)"/>
</clipPath>
</defs>
</svg>
