<svg width="24" height="24" viewBox="0 0 24 24" fill="none" xmlns="http://www.w3.org/2000/svg">
<path d="M19.6394 9.14C19.6394 15.82 11.9994 22.5 11.9994 22.5C11.9994 22.5 4.35938 15.82 4.35938 9.14C4.35938 7.11375 5.1643 5.17048 6.59708 3.7377C8.02986 2.30493 9.97312 1.5 11.9994 1.5C14.0256 1.5 15.9689 2.30493 17.4017 3.7377C18.8344 5.17048 19.6394 7.11375 19.6394 9.14Z" stroke="black" stroke-opacity="0.5" stroke-width="2" stroke-miterlimit="10"/>
<path d="M12.0006 12.0003C13.5802 12.0003 14.8606 10.7198 14.8606 9.14027C14.8606 7.56074 13.5802 6.28027 12.0006 6.28027C10.4211 6.28027 9.14062 7.56074 9.14062 9.14027C9.14062 10.7198 10.4211 12.0003 12.0006 12.0003Z" stroke="black" stroke-opacity="0.5" stroke-width="2" stroke-miterlimit="10"/>
</svg>
