<svg width="24" height="24" viewBox="0 0 24 24" fill="none" xmlns="http://www.w3.org/2000/svg">
<path d="M18.0001 20.4505C15.6801 22.7705 10.3501 21.2005 6.0801 16.9405C1.8101 12.6805 0.250099 7.34047 2.5701 5.00047L5.1201 2.48047L10.0001 7.38047L8.1801 9.24047C7.81365 9.61433 7.60838 10.117 7.60838 10.6405C7.60838 11.164 7.81365 11.6666 8.1801 12.0405L11.0001 14.8305C11.3744 15.1999 11.8792 15.4071 12.4051 15.4071C12.931 15.4071 13.4358 15.1999 13.8101 14.8305L15.6401 13.0005L20.5401 17.9005L18.0001 20.4505Z" stroke="black" stroke-opacity="0.5" stroke-width="2" stroke-miterlimit="10"/>
<path d="M13.3691 8.74023H15.1991" stroke="black" stroke-opacity="0.5" stroke-width="2" stroke-miterlimit="10"/>
<path d="M17.0195 8.74023H18.8495" stroke="black" stroke-opacity="0.5" stroke-width="2" stroke-miterlimit="10"/>
<path d="M20.6699 8.74023H22.4999" stroke="black" stroke-opacity="0.5" stroke-width="2" stroke-miterlimit="10"/>
</svg>
