<svg width="24" height="24" viewBox="0 0 24 24" fill="none" xmlns="http://www.w3.org/2000/svg">
<path d="M12 21C13.1046 21 14 20.1046 14 19C14 17.8954 13.1046 17 12 17C10.8954 17 10 17.8954 10 19C10 20.1046 10.8954 21 12 21Z" stroke="black" stroke-opacity="0.5" stroke-width="2" stroke-miterlimit="10"/>
<path d="M7.75977 14.7596C8.88477 13.636 10.4098 13.0049 11.9998 13.0049C13.5898 13.0049 15.1148 13.636 16.2398 14.7596" stroke="black" stroke-opacity="0.5" stroke-width="2" stroke-miterlimit="10"/>
<path d="M4.2207 11.2197C5.24221 10.1978 6.45507 9.38704 7.78999 8.83391C9.12491 8.28079 10.5557 7.99609 12.0007 7.99609C13.4457 7.99609 14.8765 8.28079 16.2114 8.83391C17.5463 9.38704 18.7592 10.1978 19.7807 11.2197" stroke="black" stroke-opacity="0.5" stroke-width="2" stroke-miterlimit="10"/>
<path d="M1 7.62004C3.91915 4.706 7.87531 3.06934 12 3.06934C16.1247 3.06934 20.0808 4.706 23 7.62004" stroke="black" stroke-opacity="0.5" stroke-width="2" stroke-miterlimit="10"/>
</svg>
