<svg width="16" height="16" viewBox="0 0 16 16" fill="none" xmlns="http://www.w3.org/2000/svg">
<g clip-path="url(#clip0_442_5040)">
<path d="M14.2222 2.22217H8V6.66661H16V3.99995C16 3.52845 15.8127 3.07626 15.4793 2.74287C15.1459 2.40947 14.6937 2.22217 14.2222 2.22217Z" fill="#EDECEC"/>
<path d="M4.88889 2.22217H1.77778C1.30628 2.22217 0.854097 2.40947 0.520699 2.74287C0.187301 3.07626 0 3.52845 0 3.99995L0 6.66661H4.88889V2.22217Z" fill="#EEEEEE"/>
<path d="M14.2222 13.7779H8V9.3335H16V12.0002C16 12.4717 15.8127 12.9238 15.4793 13.2572C15.1459 13.5906 14.6937 13.7779 14.2222 13.7779ZM4.88889 13.7779H1.77778C1.30628 13.7779 0.854097 13.5906 0.520699 13.2572C0.187301 12.9238 0 12.4717 0 12.0002V9.3335H4.88889V13.7779Z" fill="#EDECEC"/>
<path d="M8 2.22217H4.88889V6.66661H0V9.33328H4.88889V13.7777H8V9.33328H16V6.66661H8V2.22217Z" fill="#003580"/>
</g>
<defs>
<clipPath id="clip0_442_5040">
<rect width="16" height="16" fill="white"/>
</clipPath>
</defs>
</svg>
