<svg width="16" height="16" viewBox="0 0 16 16" fill="none" xmlns="http://www.w3.org/2000/svg">
<g clip-path="url(#clip0_442_5048)">
<path d="M0 11.9999C0 12.4714 0.187301 12.9236 0.520699 13.257C0.854097 13.5904 1.30628 13.7777 1.77778 13.7777H14.2222C14.6937 13.7777 15.1459 13.5904 15.4793 13.257C15.8127 12.9236 16 12.4714 16 11.9999V10.2222H0V11.9999Z" fill="#FFCD05"/>
<path d="M0 6.22217H16V10.2222H0V6.22217Z" fill="#ED1F24"/>
<path d="M14.2222 2.22217H1.77778C1.30628 2.22217 0.854097 2.40947 0.520699 2.74287C0.187301 3.07626 0 3.52845 0 3.99995L0 6.22217H16V3.99995C16 3.52845 15.8127 3.07626 15.4793 2.74287C15.1459 2.40947 14.6937 2.22217 14.2222 2.22217Z" fill="#141414"/>
</g>
<defs>
<clipPath id="clip0_442_5048">
<rect width="16" height="16" fill="white"/>
</clipPath>
</defs>
</svg>
