<svg width="16" height="16" viewBox="0 0 16 16" fill="none" xmlns="http://www.w3.org/2000/svg">
<g clip-path="url(#clip0_442_5044)">
<path d="M14.2222 2.22217H10.6666V13.7777H14.2222C14.6937 13.7777 15.1459 13.5904 15.4793 13.257C15.8127 12.9236 16 12.4714 16 11.9999V3.99995C16 3.52845 15.8127 3.07626 15.4793 2.74287C15.1459 2.40947 14.6937 2.22217 14.2222 2.22217Z" fill="#DD2E44"/>
<path d="M1.77778 2.22217C1.30628 2.22217 0.854097 2.40947 0.520699 2.74287C0.187301 3.07626 0 3.52845 0 3.99995L0 11.9999C0 12.4714 0.187301 12.9236 0.520699 13.257C0.854097 13.5904 1.30628 13.7777 1.77778 13.7777H5.33333V2.22217H1.77778Z" fill="#265FB5"/>
<path d="M5.33337 2.22217H10.6667V13.7777H5.33337V2.22217Z" fill="#FFCC4D"/>
<path d="M7.11108 6.6665H8.88886V7.99984H7.11108V6.6665Z" fill="#DD2E44"/>
<path d="M7.11108 8V8.88889L7.99997 9.33333L8.88886 8.88889V8H7.11108Z" fill="#226699"/>
<path d="M7.11117 4.88867V5.33312H7.55561V6.22201H8.4445V4.88867H7.11117ZM8.4445 9.33312L8.00005 9.61089L7.55561 9.33312L7.11117 10.6665L8.00005 11.1109L8.88894 10.6665L8.4445 9.33312ZM6.66672 5.77756L6.22228 5.33312L5.77783 5.77756V10.222L6.66672 9.33312V6.22201H7.11117L6.66672 5.77756ZM9.77783 5.33312L9.33339 5.77756L8.88894 6.22201H9.33339V9.33312L10.2223 10.222V5.77756L9.77783 5.33312Z" fill="#A0724A"/>
<path d="M7.21509 7.81934H7.45109V7.99978H7.21509V7.81934ZM8.54842 7.81934H8.78442V7.99978H8.54842V7.81934Z" fill="#FFCC4D"/>
<path d="M6.94981 10.1082C6.9027 10.1357 6.83293 10.1037 6.79426 10.0375L5.80226 8.31928C5.76404 8.25262 5.77115 8.17662 5.8187 8.14906L5.87915 8.11439C5.92626 8.08684 5.99604 8.11884 6.03426 8.18506L7.02626 9.90373C7.06493 9.96995 7.05737 10.0459 7.01026 10.0735L6.94981 10.1082Z" fill="#77B255"/>
<path d="M10.1409 8.17479C10.1885 8.2019 10.1965 8.27702 10.1582 8.34235L9.18446 10.0303C9.14624 10.0957 9.07779 10.1263 9.02979 10.0992L8.96979 10.0646C8.92268 10.037 8.91468 9.96235 8.95246 9.89657L9.92668 8.20857C9.96446 8.14368 10.0334 8.11213 10.0809 8.14013L10.1409 8.17479Z" fill="#FFCC4D"/>
<path d="M7.11107 9.3335L6.66663 9.77794V10.2224L7.11107 9.77794V9.3335ZM8.88885 9.3335V9.77794L9.33329 10.2224V9.77794L8.88885 9.3335Z" fill="#DD2E44"/>
<path d="M7.99999 7.55577L7.55554 7.11133V8.42599L7.99999 8.88911L8.44443 8.42599V7.11133L7.99999 7.55577Z" fill="#FFCC4D"/>
</g>
<defs>
<clipPath id="clip0_442_5044">
<rect width="16" height="16" fill="white"/>
</clipPath>
</defs>
</svg>
