<svg width="16" height="16" viewBox="0 0 16 16" fill="none" xmlns="http://www.w3.org/2000/svg">
<g clip-path="url(#clip0_442_5036)">
<path d="M16 11.9999C16 12.4714 15.8127 12.9236 15.4793 13.257C15.1459 13.5904 14.6937 13.7777 14.2222 13.7777H1.77778C1.30628 13.7777 0.854097 13.5904 0.520699 13.257C0.187301 12.9236 0 12.4714 0 11.9999V3.99995C0 3.52845 0.187301 3.07626 0.520699 2.74287C0.854097 2.40947 1.30628 2.22217 1.77778 2.22217H14.2222C14.6937 2.22217 15.1459 2.40947 15.4793 2.74287C15.8127 3.07626 16 3.52845 16 3.99995V11.9999Z" fill="#C60A1D"/>
<path d="M0 5.3335H16V10.6668H0V5.3335Z" fill="#FFC400"/>
<path d="M4 7.55566V8.889C4 9.24262 4.14048 9.58176 4.39052 9.83181C4.64057 10.0819 4.97971 10.2223 5.33333 10.2223C5.68696 10.2223 6.02609 10.0819 6.27614 9.83181C6.52619 9.58176 6.66667 9.24262 6.66667 8.889V7.55566H4Z" fill="#EA596E"/>
<path d="M5.33337 7.11133H6.66671V8.44466H5.33337V7.11133Z" fill="#F4A2B2"/>
<path d="M4 7.11133H5.33333V8.44466H4V7.11133Z" fill="#DD2E44"/>
<path d="M5.33333 7.11117C6.06971 7.11117 6.66667 6.81269 6.66667 6.4445C6.66667 6.07631 6.06971 5.77783 5.33333 5.77783C4.59695 5.77783 4 6.07631 4 6.4445C4 6.81269 4.59695 7.11117 5.33333 7.11117Z" fill="#EA596E"/>
<path d="M5.33333 6.4445C6.06971 6.4445 6.66667 6.29526 6.66667 6.11117C6.66667 5.92707 6.06971 5.77783 5.33333 5.77783C4.59695 5.77783 4 5.92707 4 6.11117C4 6.29526 4.59695 6.4445 5.33333 6.4445Z" fill="#FFAC33"/>
<path d="M3.11108 7.11133H3.55553V10.2224H3.11108V7.11133ZM7.11108 7.11133H7.55553V10.2224H7.11108V7.11133Z" fill="#99AAB5"/>
<path d="M2.66663 9.77762H3.99996V10.2221H2.66663V9.77762ZM6.66663 9.77762H7.99996V10.2221H6.66663V9.77762ZM3.11107 6.6665H3.55551V7.11095H3.11107V6.6665ZM7.11107 6.6665H7.55551V7.11095H7.11107V6.6665Z" fill="#66757F"/>
</g>
<defs>
<clipPath id="clip0_442_5036">
<rect width="16" height="16" fill="white"/>
</clipPath>
</defs>
</svg>
